<svg id="Layer_1" data-name="Layer 1" xmlns="http://www.w3.org/2000/svg" viewBox="0 0 100 100">
    <defs>
        <style>
            .cls-1,
            .cls-2 {
                fill:none;
                stroke:#231f20;
                stroke-miterlimit:10;
            }
            .cls-2 {
                stroke-width:0.5px;
            }
        </style>
    </defs>
    <polygon class="cls-1" points="81.8 11.8 91 25.4 99.1 37.4 51 51.3 81.8 11.8"/>
    <line class="cls-1" x1="81.8" y1="11.8" x2="51" y2="51.3"/>
    <circle class="cls-1" cx="82.1" cy="21.4" r="3.4"/>
    <circle class="cls-1" cx="92.1" cy="34.8" r="1.9"/>
    <circle class="cls-1" cx="79.8" cy="33.6" r="4.3"/>
    <circle class="cls-1" cx="69.5" cy="40" r="1.8"/>
    <path class="cls-2" d="M340.2,367.8s-6.8,2.1-.8,7.1,7.9,2,7.9,2l-9.5,4.3-10.4,3.1s-5-11.5,7.7-20.1" transform="translate(-256.2 -343.7)"/>
    <circle class="cls-2" cx="57.8" cy="47" r="1.3"/>
    <circle class="cls-2" cx="63.1" cy="44.1" r="3"/>
    <circle class="cls-2" cx="65.4" cy="35.8" r="1"/>
    <circle class="cls-2" cx="72.4" cy="43" r="0.2"/>
    <polygon class="cls-1" points="52.2 0.8 67.6 6.3 81.3 11.3 50.5 50.7 52.2 0.8"/>
    <line class="cls-1" x1="52.2" y1="0.8" x2="50.5" y2="50.7"/>
    <circle class="cls-1" cx="58.1" cy="8.3" r="3.4"/>
    <circle class="cls-1" cx="74" cy="13.3" r="1.9"/>
    <circle class="cls-1" cx="63.4" cy="19.6" r="4.3"/>
    <circle class="cls-1" cx="58.8" cy="30.8" r="1.8"/>
    <path class="cls-2" d="M317.4,353.1s-4.3,5.7,3.5,6.2,7.6-3,7.6-3l-5.2,9-6.6,8.6s-10.8-6.4-5.6-20.8" transform="translate(-256.2 -343.7)"/>
    <circle class="cls-2" cx="53.5" cy="43.3" r="1.3"/>
    <circle class="cls-2" cx="56.1" cy="37.9" r="3"/>
    <circle class="cls-2" cx="53" cy="29.8" r="1"/>
    <circle class="cls-2" cx="62.9" cy="31.5" r="0.2"/>
    <polygon class="cls-1" points="21.8 9.2 37.5 4.7 51.5 0.7 49.7 50.6 21.8 9.2"/>
    <line class="cls-1" x1="21.8" y1="9.2" x2="49.7" y2="50.6"/><circle class="cls-1" cx="30.9" cy="11.8" r="3.4"/>
    <circle class="cls-1" cx="46.8" cy="6.5" r="1.9"/>
    <circle class="cls-1" cx="41.9" cy="17.9" r="4.3"/>
    <circle class="cls-1" cx="44.8" cy="29.6" r="1.8"/>
    <path class="cls-2" d="M290.3,354.6s-.2,7.1,6.5,2.9,4.3-6.8,4.3-6.8l1.2,10.3-.3,10.9s-12.5,1.1-16.8-13.6" transform="translate(-256.2 -343.7)"/>
    <circle class="cls-2" cx="47.8" cy="42.9" r="1.3"/>
    <circle class="cls-2" cx="46.7" cy="37" r="3"/>
    <circle class="cls-2" cx="39.5" cy="32.2" r="1"/>
    <circle class="cls-2" cx="48.5" cy="27.8" r="0.2"/>
    <polygon class="cls-1" points="2.1 33.9 12.1 21 21.1 9.5 49.1 51 2.1 33.9"/>
    <line class="cls-1" x1="2.1" y1="33.9" x2="49.1" y2="51"/>
    <circle class="cls-1" cx="11.1" cy="30.7" r="3.4"/>
    <circle class="cls-1" cx="20.8" cy="17" r="1.9"/>
    <circle class="cls-1" cx="23.4" cy="29.1" r="4.3"/>
    <circle class="cls-1" cx="32.7" cy="36.9" r="1.8"/>
    <path class="cls-2" d="M269.2,371.7s4.1,5.8,7-1.4-.5-8.1-.5-8.1l7,7.7,6.1,8.9s-9.4,8.3-21.5-1.1" transform="translate(-256.2 -343.7)"/>
    <circle class="cls-2" cx="42.9" cy="45.9" r="1.3"/>
    <circle class="cls-2" cx="38.6" cy="41.7" r="3"/>
    <circle class="cls-2" cx="30" cy="42.1" r="1"/>
    <circle class="cls-2" cx="34.6" cy="33.3" r="0.2"/>
    <polygon class="cls-1" points="0.7 65.5 1.2 49.1 1.8 34.6 48.7 51.7 0.7 65.5"/>
    <line class="cls-1" x1="0.7" y1="65.5" x2="48.7" y2="51.7"/>
    <circle class="cls-1" cx="6" cy="57.6" r="3.4"/>
    <circle class="cls-1" cx="5.9" cy="40.8" r="1.9"/>
    <circle class="cls-1" cx="15.1" cy="49" r="4.3"/>
    <circle class="cls-1" cx="27.2" cy="49.9" r="1.8"/>
    <path class="cls-2" d="M262.2,397.9s6.7,2.4,4.8-5.2-5.1-6.3-5.1-6.3l10.2,2.2,10.2,3.6s-2.8,12.2-18.1,11.7" transform="translate(-256.2 -343.7)"/>
    <circle class="cls-2" cx="40.7" cy="51.2" r="1.3"/>
    <circle class="cls-2" cx="34.8" cy="50.4" r="3"/>
    <circle class="cls-2" cx="28.1" cy="55.7" r="1"/>
    <circle class="cls-2" cx="26.6" cy="45.8" r="0.2"/>
    <polygon class="cls-1" points="18.1 91.8 8.9 78.3 0.8 66.2 48.9 52.5 18.1 91.8"/>
    <line class="cls-1" x1="18.1" y1="91.8" x2="48.9" y2="52.5"/>
    <circle class="cls-1" cx="17.8" cy="82.3" r="3.4"/>
    <circle class="cls-1" cx="7.8" cy="68.8" r="1.9"/>
    <circle class="cls-1" cx="20.1" cy="70" r="4.3"/>
    <circle class="cls-1" cx="30.4" cy="63.7" r="1.8"/>
    <path class="cls-2" d="M272,423.3s6.8-2.1.8-7.1-7.9-2-7.9-2l9.5-4.3,10.4-3s5,11.5-7.7,20.1" transform="translate(-256.2 -343.7)"/>
    <circle class="cls-2" cx="42.1" cy="56.7" r="1.3"/>
    <circle class="cls-2" cx="36.8" cy="59.6" r="3"/>
    <circle class="cls-2" cx="34.5" cy="67.9" r="1"/>
    <circle class="cls-2" cx="27.5" cy="60.7" r="0.2"/>
    <polygon class="cls-1" points="47.6 103 32.3 97.3 18.6 92.3 49.4 53 47.6 103"/>
    <line class="cls-1" x1="47.6" y1="103" x2="49.4" y2="53"/>
    <circle class="cls-1" cx="41.8" cy="95.4" r="3.4"/>
    <circle class="cls-1" cx="25.8" cy="90.4" r="1.9"/>
    <circle class="cls-1" cx="36.5" cy="84.1" r="4.3"/>
    <circle class="cls-1" cx="41.1" cy="72.9" r="1.8"/>
    <path class="cls-2" d="M294.8,438.1s4.3-5.7-3.5-6.2-7.6,2.9-7.6,2.9l5.2-9,6.6-8.6s10.8,6.4,5.6,20.8" transform="translate(-256.2 -343.7)"/>
    <circle class="cls-2" cx="46.4" cy="60.4" r="1.3"/><circle class="cls-2" cx="43.8" cy="65.8" r="3"/>
    <circle class="cls-2" cx="46.9" cy="73.9" r="1"/>
    <circle class="cls-2" cx="37" cy="72.2" r="0.2"/>
    <polygon class="cls-1" points="78.1 94.6 62.4 99.1 48.4 103 50.2 53.1 78.1 94.6"/>
    <line class="cls-1" x1="78.1" y1="94.6" x2="50.2" y2="53.1"/>
    <circle class="cls-1" cx="68.9" cy="91.9" r="3.4"/>
    <circle class="cls-1" cx="53" cy="97.2" r="1.9"/>
    <circle class="cls-1" cx="58" cy="85.9" r="4.3"/>
    <circle class="cls-1" cx="55.1" cy="74.1" r="1.8"/>
    <path class="cls-2" d="M321.9,436.6s.2-7.1-6.5-2.9-4.3,6.8-4.3,6.8l-1.2-10.4.3-10.8s12.5-1.1,16.8,13.6" transform="translate(-256.2 -343.7)"/>
    <circle class="cls-2" cx="52.1" cy="60.9" r="1.3"/>
    <circle class="cls-2" cx="53.2" cy="66.8" r="3"/>
    <circle class="cls-2" cx="60.4" cy="71.5" r="1"/>
    <circle class="cls-2" cx="51.4" cy="75.9" r="0.2"/>
    <polygon class="cls-1" points="97.8 69.9 87.7 82.8 78.7 94.2 50.9 52.7 97.8 69.9"/>
    <line class="cls-1" x1="97.8" y1="69.9" x2="50.9" y2="52.7"/>
    <circle class="cls-1" cx="88.8" cy="73.1" r="3.4"/>
    <circle class="cls-1" cx="79.1" cy="86.7" r="1.9"/>
    <circle class="cls-1" cx="76.4" cy="74.6" r="4.3"/>
    <circle class="cls-1" cx="67.2" cy="66.8" r="1.8"/>
    <path class="cls-2" d="M343,419.6s-4-5.9-7,1.4.5,8,.5,8l-7-7.7-6.1-8.9s9.5-8.3,21.5,1.1" transform="translate(-256.2 -343.7)"/>
    <circle class="cls-2" cx="57" cy="57.9" r="1.3"/>
    <circle class="cls-2" cx="61.4" cy="62" r="3"/>
    <circle class="cls-2" cx="69.9" cy="61.6" r="1"/>
    <circle class="cls-2" cx="65.3" cy="70.5" r="0.2"/>
    <polygon class="cls-1" points="99.3 38.4 98.7 54.7 98.1 69.2 51.2 52 99.3 38.4"/>
    <line class="cls-1" x1="99.3" y1="38.4" x2="51.2" y2="52"/>
    <circle class="cls-1" cx="93.9" cy="46.2" r="3.4"/>
    <circle class="cls-1" cx="94" cy="63" r="1.9"/>
    <circle class="cls-1" cx="84.8" cy="54.7" r="4.3"/>
    <circle class="cls-1" cx="72.7" cy="53.8" r="1.8"/>
    <path class="cls-2" d="M350,393.3s-6.7-2.4-4.8,5.3,5.2,6.2,5.2,6.2l-10.2-2.1L330,399s2.8-12.2,18-11.7" transform="translate(-256.2 -343.7)"/>
    <circle class="cls-2" cx="59.2" cy="52.6" r="1.3"/>
    <circle class="cls-2" cx="65.1" cy="53.4" r="3"/>
    <circle class="cls-2" cx="71.9" cy="48" r="1"/>
    <circle class="cls-2" cx="73.3" cy="57.9" r="0.2"/>
</svg>